PathFileType  4	(X/Y/Z) C:\Users\hpl\Documents\MyRepositories\mocap-processing\Data\treadmill\Subject1\Edited\
DataRate	CameraRate	NumFrames	NumMarkers	Units	OrigDataRate	OrigDataStartFrame	OrigNumFrames
   50.0		   50.0		   10		     34		 mm	   50.0	      1	   3148
Frame#	Time	r_knee			r_shank(antsup)			r_ankle			r_calc			r_5meta			r_toe			L_knee			L_shank(ant_sup)			L_ankle			L_calc			L_5meta			L_toe			r_sh2			r_sh3			r_sh4			L_sh2			L_sh3			r_thigh1			r_thigh2			r_thigh3			r_thigh4			r_thigh5			L_thigh1			L_thigh2			L_thigh3			L_thigh4			r.ASIS			r.PSIS			L.ASIS			L.PSIS			C7			R_Shoulder			L_Shoulder			Sternum			
		X1	Y1	Z1	X2	Y2	Z2	X3	Y3	Z3	X4	Y4	Z4	X5	Y5	Z5	X6	Y6	Z6	X7	Y7	Z7	X8	Y8	Z8	X9	Y9	Z9	X10	Y10	Z10	X11	Y11	Z11	X12	Y12	Z12	X13	Y13	Z13	X14	Y14	Z14	X15	Y15	Z15	X16	Y16	Z16	X17	Y17	Z17	X18	Y18	Z18	X19	Y19	Z19	X20	Y20	Z20	X21	Y21	Z21	X22	Y22	Z22	X23	Y23	Z23	X24	Y24	Z24	X25	Y25	Z25	X26	Y26	Z26	X27	Y27	Z27	X28	Y28	Z28	X29	Y29	Z29	X30	Y30	Z30	X31	Y31	Z31	X32	Y32	Z32	X33	Y33	Z33	X34	Y34	Z34	

1	0.00000	982.266	571.293	-416.213	1006.147	481.447	-416.549	962.702	108.871	-459.819	878.115	69.450	-515.456	1071.783	40.257	-429.592	1114.224	78.007	-488.057	962.929	550.255	-724.961	919.121	439.342	-718.223	617.577	265.383	-704.572	543.980	314.941	-661.165	663.314	109.385	-653.488	615.103	120.135	-713.881	1006.670	361.714	-425.514	930.227	478.444	-413.622	922.560	362.903	-419.786	870.578	513.621	-738.845	776.102	435.897	-733.413	955.646	898.359	-375.276	989.860	788.218	-381.504	951.991	742.699	-380.249	848.547	860.261	-380.092	889.573	751.635	-395.453	987.806	827.202	-737.403	1025.141	693.540	-735.059	872.851	796.629	-739.206	916.083	666.959	-728.193	945.210	1088.875	-430.987	756.028	1094.287	-523.687	954.437	1077.647	-685.223	762.672	1087.318	-605.259	855.537	1591.313	-569.214	906.190	1550.890	-400.203	926.182	1543.165	-747.715	994.346	1507.233	-561.920
2	0.02000	970.012	571.528	-416.420	991.775	481.492	-417.250	938.712	109.229	-460.241	853.357	70.670	-514.846	1046.729	40.258	-429.471	1089.798	77.398	-487.952	982.534	559.184	-726.297	942.558	446.876	-719.481	646.377	262.874	-703.442	569.688	309.046	-661.232	701.087	111.294	-649.556	652.226	117.633	-710.170	989.755	361.688	-425.815	915.749	479.913	-413.063	905.667	364.834	-419.027	891.742	519.471	-740.441	799.659	438.689	-734.828	953.199	900.001	-376.066	985.064	788.170	-383.252	946.625	744.284	-379.680	845.240	863.573	-377.907	883.741	753.775	-393.019	995.022	835.811	-737.128	1038.478	704.085	-734.759	881.325	800.683	-739.056	929.900	672.990	-728.158	944.418	1091.638	-429.444	754.712	1097.848	-521.501	952.144	1083.141	-683.861	760.517	1091.125	-602.932	853.995	1595.108	-566.771	906.361	1553.264	-398.491	921.693	1546.727	-746.785	992.349	1510.448	-561.529
3	0.04000	954.702	570.977	-416.505	975.177	481.189	-417.257	914.232	109.777	-460.396	828.597	71.556	-515.054	1021.778	40.173	-429.350	1065.286	76.579	-488.199	1000.456	568.072	-728.047	964.890	453.519	-720.363	677.629	255.579	-702.063	597.764	296.513	-659.954	743.500	109.071	-647.164	693.719	111.133	-707.645	971.094	361.334	-425.762	898.872	481.106	-412.274	886.942	365.773	-418.928	910.431	523.435	-742.501	822.696	437.807	-735.722	951.257	900.814	-377.523	978.002	790.165	-382.873	939.945	745.479	-379.008	841.424	866.829	-375.654	877.041	756.149	-391.327	1000.659	844.861	-736.952	1048.700	714.540	-735.003	888.990	805.027	-740.225	942.743	679.598	-730.272	943.238	1094.733	-428.138	753.509	1102.196	-519.182	949.529	1088.657	-682.705	758.823	1096.771	-600.927	852.031	1598.720	-564.446	906.106	1556.701	-397.064	917.052	1551.053	-745.724	990.355	1514.152	-561.226
4	0.06000	938.209	570.941	-416.260	956.290	480.588	-417.013	889.528	110.227	-460.460	803.633	72.283	-515.328	996.811	40.005	-429.421	1040.526	75.966	-487.981	1016.286	575.762	-727.755	986.298	459.615	-720.717	711.787	244.494	-700.475	628.420	278.068	-657.743	789.815	104.200	-646.679	739.831	102.048	-706.645	950.403	360.909	-425.378	880.400	481.718	-412.501	866.435	366.771	-419.337	927.452	525.568	-743.622	845.103	435.212	-735.832	945.355	901.504	-377.372	970.668	789.841	-383.493	931.081	746.663	-377.913	836.364	870.439	-374.037	868.234	758.640	-390.509	1005.542	854.041	-736.626	1059.742	726.450	-735.370	894.845	809.429	-742.732	953.995	686.167	-734.375	942.143	1097.072	-427.326	752.575	1106.861	-517.344	947.166	1093.783	-681.554	757.828	1102.162	-599.374	848.743	1603.369	-561.570	905.885	1560.469	-395.980	912.413	1555.386	-744.566	988.264	1517.780	-561.123
5	0.08000	920.893	571.303	-416.095	936.439	480.389	-416.389	864.897	110.567	-460.649	778.594	72.898	-515.358	971.755	40.051	-429.370	1016.260	74.866	-488.768	1028.595	584.264	-728.393	1005.924	465.716	-720.791	747.407	229.998	-699.111	662.182	255.148	-654.527	840.069	97.734	-647.448	789.730	91.338	-707.104	928.834	360.697	-425.106	860.504	482.634	-412.956	844.836	367.902	-419.907	942.448	527.087	-743.792	867.047	430.912	-735.216	940.402	901.354	-377.535	962.248	789.156	-384.036	920.667	747.049	-379.586	829.652	874.276	-372.774	857.912	761.369	-390.234	1009.650	863.135	-736.421	1068.280	737.539	-738.684	900.354	814.770	-745.453	963.779	692.925	-738.263	941.028	1098.773	-427.029	751.834	1111.273	-516.041	944.787	1097.656	-680.922	756.379	1106.710	-598.286	847.977	1604.892	-559.966	905.765	1563.901	-395.142	908.335	1559.089	-743.452	986.188	1521.069	-561.032
6	0.10000	903.058	571.526	-416.127	916.525	480.370	-416.106	840.153	111.065	-460.807	754.024	73.125	-515.814	946.867	39.920	-429.507	991.160	74.493	-488.364	1038.715	591.957	-728.713	1023.634	472.018	-721.239	786.332	213.981	-698.255	699.642	229.115	-650.965	894.180	92.097	-650.526	842.519	80.512	-708.926	907.073	360.769	-424.822	840.536	483.680	-412.951	823.346	369.302	-419.890	955.020	528.122	-742.374	887.814	425.828	-734.577	934.492	901.024	-378.011	951.560	788.082	-383.953	909.407	747.609	-379.496	822.984	877.622	-373.052	847.193	764.384	-392.929	1011.697	870.515	-736.910	1074.873	746.991	-736.072	904.014	819.011	-748.999	971.345	699.209	-741.304	940.280	1099.812	-426.631	750.795	1114.573	-515.337	943.008	1100.723	-680.319	754.968	1110.254	-597.652	846.179	1607.127	-558.443	905.779	1567.056	-394.323	904.568	1561.851	-742.439	984.296	1523.867	-561.003
7	0.12000	885.253	571.596	-416.091	896.902	480.258	-415.890	815.892	111.375	-461.226	729.202	73.794	-515.941	921.676	39.863	-429.386	966.243	74.441	-488.173	1045.967	598.298	-728.891	1038.512	477.762	-722.249	827.737	196.425	-697.102	741.195	201.330	-646.905	949.158	87.144	-655.590	897.946	70.655	-712.210	885.646	360.825	-424.876	821.039	484.772	-412.567	802.133	370.486	-419.860	964.317	528.014	-739.758	907.189	419.738	-732.476	927.924	900.412	-378.427	942.040	786.896	-384.500	898.081	747.921	-379.782	815.936	880.529	-372.951	835.945	766.583	-392.285	1013.140	876.469	-736.915	1079.069	753.806	-741.135	906.236	823.144	-747.167	976.811	704.800	-744.190	938.424	1099.919	-426.327	749.581	1116.872	-515.174	941.225	1103.054	-679.684	753.291	1112.517	-597.489	844.545	1609.067	-556.910	906.029	1569.068	-393.720	901.151	1563.571	-741.781	982.454	1525.948	-561.017
8	0.14000	867.356	571.492	-416.271	877.248	480.087	-416.066	791.133	111.735	-461.839	704.215	74.633	-516.072	896.598	39.760	-429.640	941.379	73.968	-488.151	1050.091	602.995	-728.803	1051.613	481.726	-723.696	871.036	179.166	-696.527	786.191	173.403	-643.524	1005.799	84.420	-661.397	954.550	62.981	-716.740	864.443	360.860	-425.017	801.532	485.636	-412.638	780.969	371.656	-420.005	971.930	524.852	-736.913	925.811	411.255	-729.964	921.566	899.394	-379.422	932.214	785.509	-385.437	886.311	749.088	-379.119	809.020	882.927	-372.524	825.397	768.165	-391.633	1013.707	880.605	-736.597	1081.698	758.481	-734.732	908.748	825.787	-755.009	980.547	707.760	-745.315	936.585	1099.620	-425.921	748.018	1118.237	-515.725	939.640	1104.571	-679.132	751.665	1114.108	-598.377	843.310	1610.122	-555.762	906.217	1570.203	-393.279	898.157	1564.387	-741.369	981.231	1527.045	-561.173
9	0.16000	849.629	571.190	-416.419	857.476	479.819	-416.213	766.999	112.216	-461.841	679.452	75.350	-516.265	871.961	39.840	-429.262	916.845	73.882	-487.756	1051.524	604.808	-728.400	1062.621	483.791	-724.680	916.393	162.649	-696.900	834.584	146.114	-640.863	1062.559	84.363	-668.167	1012.667	57.943	-721.982	842.956	360.729	-425.150	781.813	486.388	-413.113	759.681	372.704	-420.406	978.547	518.438	-734.692	945.036	400.323	-727.790	915.312	897.747	-380.808	922.582	783.747	-386.563	876.409	748.168	-380.406	802.476	884.457	-372.494	815.229	769.374	-391.486	1012.893	882.212	-735.599	1081.120	761.946	-734.870	908.714	826.986	-756.597	982.277	709.428	-747.465	934.174	1098.410	-425.518	746.210	1118.745	-516.959	938.208	1105.139	-678.642	749.988	1114.977	-599.497	842.482	1610.230	-554.927	906.378	1570.393	-393.029	895.308	1564.260	-741.080	980.028	1526.973	-561.432
10	0.18000	831.822	570.644	-416.869	837.487	479.556	-416.449	742.631	112.658	-462.182	654.633	76.141	-516.220	846.351	39.789	-429.211	892.049	73.260	-488.269	1050.940	603.477	-727.190	1072.123	484.250	-724.848	963.652	147.562	-698.061	886.370	120.775	-639.939	1118.843	86.684	-675.412	1070.218	55.395	-728.315	821.235	360.698	-425.353	761.964	487.334	-413.802	738.128	373.911	-421.022	984.307	509.891	-732.925	964.666	388.739	-726.495	909.044	895.755	-382.267	913.389	781.460	-388.272	866.227	746.922	-381.437	795.992	885.407	-372.682	805.011	769.391	-390.914	1010.963	881.057	-734.443	1079.122	760.849	-733.024	907.757	826.472	-757.992	979.785	709.169	-746.451	932.199	1096.583	-425.455	744.470	1118.220	-518.310	936.488	1104.271	-678.578	748.453	1114.721	-601.040	842.167	1609.266	-554.292	906.777	1569.585	-393.010	893.185	1563.055	-741.051	979.456	1525.785	-561.730
